<svg width="1148" height="792" viewBox="0 0 1148 792" fill="none" xmlns="http://www.w3.org/2000/svg">
<g filter="url(#filter0_bd_2_3)">
<rect x="193" y="33" width="912" height="154" rx="29" fill="#2B2A2A"/>
<path fill-rule="evenodd" clip-rule="evenodd" d="M401 57.5C401 43.969 390.031 33 376.5 33H62C45.9837 33 33 45.9837 33 62V720C33 736.016 45.9837 749 62 749H1076C1092.02 749 1105 736.016 1105 720V111C1105 94.9837 1092.02 82 1076 82H425.5C411.969 82 401 71.031 401 57.5V57.5Z" fill="#191919"/>
<circle cx="77.5" cy="66.5" r="6.5" fill="#C22121"/>
<circle cx="100.5" cy="66.5" r="6.5" fill="#B98D1B"/>
<circle cx="123.5" cy="66.5" r="6.5" fill="#1AB658"/>
<g filter="url(#filter1_d_2_3)">
<g clip-path="url(#clip0_2_3)">
<rect x="33" y="167" width="1072" height="582" rx="29" fill="url(#paint0_linear_2_3)"/>
<g clip-path="url(#clip1_2_3)">
<path d="M1105 167H33V749H1105V167Z" fill="black"/>
<path d="M1105 167H33V749H1105V167Z" fill="#303030" fill-opacity="0.253189"/>
<mask id="mask0_2_3" style="mask-type:luminance" maskUnits="userSpaceOnUse" x="33" y="167" width="1072" height="582">
<path d="M1105 167H33V749H1105V167Z" fill="white"/>
</mask>
<g mask="url(#mask0_2_3)">
<g filter="url(#filter2_f_2_3)">
<path d="M965.21 297.785H119V749.199H965.21V297.785Z" fill="#373737"/>
<path d="M954.49 194.844H346.8V633.526H954.49V194.844Z" fill="#4C4C4C"/>
<path d="M983.3 113H186V405.819H983.3V113Z" fill="#262626"/>
<path d="M937.74 125.731H234.24V532.767H937.74V125.731Z" fill="#454545"/>
</g>
</g>
<rect x="70" y="241" width="154" height="19" rx="9.5" fill="#2B2A2A"/>
<rect x="70" y="241" width="154" height="19" rx="9.5" fill="#2B2A2A"/>
<rect x="110" y="241" width="154" height="19" rx="9.5" fill="#2B2A2A"/>
<rect x="1016" y="201" width="40" height="40" rx="20" fill="#2B2A2A"/>
<rect x="70" y="281" width="154" height="19" rx="9.5" fill="#2B2A2A"/>
<rect x="326" y="281" width="584" height="300" rx="29" fill="#252424"/>
<rect x="70" y="321" width="154" height="19" rx="9.5" fill="#2B2A2A"/>
<rect x="70" y="361" width="154" height="19" rx="9.5" fill="#2B2A2A"/>
<rect x="70" y="691" width="154" height="19" rx="9.5" fill="#2B2A2A"/>
</g>
</g>
</g>
<rect x="203" y="53" width="154" height="19" rx="9.5" fill="#2B2A2A"/>
</g>
<defs>
<filter id="filter0_bd_2_3" x="0" y="0" width="1148" height="792" filterUnits="userSpaceOnUse" color-interpolation-filters="sRGB">
<feFlood flood-opacity="0" result="BackgroundImageFix"/>
<feGaussianBlur in="BackgroundImageFix" stdDeviation="2"/>
<feComposite in2="SourceAlpha" operator="in" result="effect1_backgroundBlur_2_3"/>
<feColorMatrix in="SourceAlpha" type="matrix" values="0 0 0 0 0 0 0 0 0 0 0 0 0 0 0 0 0 0 127 0" result="hardAlpha"/>
<feOffset dx="5" dy="5"/>
<feGaussianBlur stdDeviation="19"/>
<feComposite in2="hardAlpha" operator="out"/>
<feColorMatrix type="matrix" values="0 0 0 0 0.333333 0 0 0 0 0.333333 0 0 0 0 0.333333 0 0 0 0.5 0"/>
<feBlend mode="normal" in2="effect1_backgroundBlur_2_3" result="effect2_dropShadow_2_3"/>
<feBlend mode="normal" in="SourceGraphic" in2="effect2_dropShadow_2_3" result="shape"/>
</filter>
<filter id="filter1_d_2_3" x="29" y="167" width="1080" height="590" filterUnits="userSpaceOnUse" color-interpolation-filters="sRGB">
<feFlood flood-opacity="0" result="BackgroundImageFix"/>
<feColorMatrix in="SourceAlpha" type="matrix" values="0 0 0 0 0 0 0 0 0 0 0 0 0 0 0 0 0 0 127 0" result="hardAlpha"/>
<feOffset dy="4"/>
<feGaussianBlur stdDeviation="2"/>
<feComposite in2="hardAlpha" operator="out"/>
<feColorMatrix type="matrix" values="0 0 0 0 0 0 0 0 0 0 0 0 0 0 0 0 0 0 0.25 0"/>
<feBlend mode="normal" in2="BackgroundImageFix" result="effect1_dropShadow_2_3"/>
<feBlend mode="normal" in="SourceGraphic" in2="effect1_dropShadow_2_3" result="shape"/>
</filter>
<filter id="filter2_f_2_3" x="-256" y="-262" width="1614.3" height="1386.2" filterUnits="userSpaceOnUse" color-interpolation-filters="sRGB">
<feFlood flood-opacity="0" result="BackgroundImageFix"/>
<feBlend mode="normal" in="SourceGraphic" in2="BackgroundImageFix" result="shape"/>
<feGaussianBlur stdDeviation="187.5" result="effect1_foregroundBlur_2_3"/>
</filter>
<linearGradient id="paint0_linear_2_3" x1="33" y1="458" x2="1105" y2="458" gradientUnits="userSpaceOnUse">
<stop stop-color="#222222"/>
<stop offset="1" stop-color="#312F2F"/>
</linearGradient>
<clipPath id="clip0_2_3">
<rect x="33" y="167" width="1072" height="582" rx="29" fill="white"/>
</clipPath>
<clipPath id="clip1_2_3">
<rect width="1072" height="582" fill="white" transform="translate(33 167)"/>
</clipPath>
</defs>
</svg>
