<svg width="520" height="374" viewBox="0 0 520 374" fill="none" xmlns="http://www.w3.org/2000/svg"><mask id="q40i7vkjib" style="mask-type:alpha" maskUnits="userSpaceOnUse" x="0" y="0" width="520" height="374"><path fill="url(#y3bixlzq6a)" d="M0 0h520v374H0z"/></mask><g mask="url(#q40i7vkjib)"><path d="M10 12a8 8 0 0 1 8-8h484a8 8 0 0 1 8 8v362H10V12Z" fill="#181622"/><path fill="#853BCE" d="M34 20h1v24h-1z"/><path d="M40.523 38 37.34 26.364h1.432l2.431 9.477h.114l2.477-9.477h1.591l2.478 9.477h.113l2.432-9.477h1.432L48.659 38h-1.454l-2.569-9.273h-.09L41.976 38h-1.454Zm14.233-5.25V38h-1.341V26.364h1.34v4.272h.114c.205-.45.512-.808.92-1.073.414-.27.963-.404 1.648-.404.595 0 1.116.12 1.563.358a2.41 2.41 0 0 1 1.04 1.085c.25.485.375 1.102.375 1.853V38h-1.341v-5.455c0-.693-.18-1.229-.54-1.608-.356-.382-.85-.573-1.483-.573-.44 0-.833.092-1.182.278a2.036 2.036 0 0 0-.818.813c-.197.356-.295.787-.295 1.295Zm10.68 5.455a3.545 3.545 0 0 1-1.506-.313 2.584 2.584 0 0 1-1.074-.915c-.265-.401-.397-.886-.397-1.454 0-.5.098-.906.295-1.216.197-.315.46-.56.79-.739.33-.178.693-.31 1.09-.398a13.28 13.28 0 0 1 1.211-.215c.53-.069.96-.12 1.29-.154.333-.038.576-.1.727-.187.156-.087.233-.239.233-.455v-.045c0-.561-.153-.997-.46-1.307-.303-.31-.763-.466-1.38-.466-.64 0-1.143.14-1.506.42-.364.28-.62.58-.767.898l-1.273-.454c.227-.53.53-.944.909-1.24.383-.298.8-.507 1.25-.624a5.19 5.19 0 0 1 1.34-.182c.281 0 .603.034.967.102a3.09 3.09 0 0 1 1.062.404c.345.204.63.513.858.926.227.413.341.966.341 1.659V38h-1.34v-1.182h-.069c-.09.19-.242.392-.455.608-.212.216-.494.4-.846.551-.352.152-.782.228-1.29.228ZM65.641 37c.53 0 .977-.104 1.34-.313a2.127 2.127 0 0 0 1.114-1.846v-1.227c-.057.068-.182.13-.375.187-.19.053-.409.1-.659.142a29.881 29.881 0 0 1-1.284.17c-.349.046-.674.12-.977.222a1.68 1.68 0 0 0-.728.45c-.181.196-.272.465-.272.806 0 .466.172.818.517 1.057.348.235.79.352 1.324.352Zm10.038-7.727v1.136h-4.523v-1.136h4.523Zm-3.205-2.091h1.341V35.5c0 .379.055.663.165.852.114.186.258.31.432.375.178.06.365.091.562.091.148 0 .27-.007.364-.023l.227-.045.273 1.205a2.72 2.72 0 0 1-.38.102c-.163.038-.37.057-.62.057a2.7 2.7 0 0 1-1.114-.245 2.213 2.213 0 0 1-.897-.744c-.235-.333-.353-.754-.353-1.261v-8.682Zm13.267 11c-.818 0-1.522-.193-2.113-.58a3.777 3.777 0 0 1-1.364-1.596c-.318-.678-.477-1.453-.477-2.324 0-.887.163-1.669.489-2.347.33-.682.787-1.214 1.375-1.596.59-.387 1.28-.58 2.068-.58.613 0 1.166.114 1.659.341.492.227.896.546 1.21.954.315.41.51.887.585 1.432h-1.34c-.103-.397-.33-.75-.682-1.056-.349-.311-.819-.466-1.41-.466-.522 0-.98.136-1.374.409-.39.269-.696.65-.915 1.142-.216.488-.324 1.062-.324 1.721 0 .675.106 1.262.318 1.762.216.5.519.888.91 1.164.393.277.855.415 1.386.415.348 0 .664-.06.948-.181.284-.122.525-.296.722-.523.197-.228.337-.5.42-.819h1.341c-.076.516-.263.98-.562 1.393a3.158 3.158 0 0 1-1.176.977c-.485.239-1.05.358-1.694.358Zm7.96.023a3.546 3.546 0 0 1-1.505-.313 2.584 2.584 0 0 1-1.074-.915c-.265-.401-.398-.886-.398-1.454 0-.5.099-.906.296-1.216.197-.315.46-.56.79-.739a4.15 4.15 0 0 1 1.09-.398c.402-.09.805-.162 1.21-.215.531-.069.961-.12 1.29-.154.334-.038.576-.1.728-.187.155-.087.233-.239.233-.455v-.045c0-.561-.154-.997-.46-1.307-.303-.31-.764-.466-1.381-.466-.64 0-1.142.14-1.506.42-.363.28-.62.58-.767.898l-1.273-.454c.228-.53.53-.944.91-1.24a3.411 3.411 0 0 1 1.25-.624 5.19 5.19 0 0 1 1.34-.182c.28 0 .603.034.966.102a3.09 3.09 0 0 1 1.063.404c.344.204.63.513.858.926.227.413.34.966.34 1.659V38h-1.34v-1.182h-.068a2.36 2.36 0 0 1-.455.608c-.212.216-.494.4-.846.551-.353.152-.783.228-1.29.228ZM93.907 37c.53 0 .977-.104 1.341-.313a2.127 2.127 0 0 0 1.114-1.846v-1.227c-.057.068-.182.13-.375.187-.19.053-.41.1-.66.142a29.81 29.81 0 0 1-1.283.17c-.349.046-.675.12-.978.222a1.682 1.682 0 0 0-.727.45c-.182.196-.273.465-.273.806 0 .466.173.818.517 1.057.349.235.79.352 1.324.352Zm7.584-4.25V38h-1.341v-8.727h1.296v1.363h.113c.205-.443.515-.799.932-1.068.417-.273.955-.409 1.614-.409.591 0 1.108.121 1.551.364a2.45 2.45 0 0 1 1.034 1.09c.246.486.369 1.1.369 1.842V38h-1.341v-5.455c0-.685-.178-1.22-.534-1.602-.356-.386-.844-.58-1.466-.58-.428 0-.81.093-1.147.279a1.988 1.988 0 0 0-.79.813c-.193.356-.29.787-.29 1.295ZM115.986 38l-2.659-8.727h1.409l1.886 6.682h.091l1.864-6.682h1.432l1.84 6.659h.091l1.887-6.66h1.409L122.577 38h-1.318l-1.91-6.704h-.136L117.304 38h-1.318Zm14.385.182c-.841 0-1.567-.186-2.176-.557a3.742 3.742 0 0 1-1.404-1.568c-.326-.674-.488-1.459-.488-2.352 0-.894.162-1.682.488-2.364.33-.686.788-1.22 1.375-1.602.591-.387 1.28-.58 2.068-.58.455 0 .904.076 1.347.227.443.152.847.398 1.21.739.364.337.654.784.87 1.34.215.558.323 1.243.323 2.058v.568h-6.727v-1.16h5.364c0-.492-.099-.931-.296-1.317a2.223 2.223 0 0 0-.829-.915c-.356-.224-.777-.335-1.262-.335-.534 0-.996.132-1.386.397a2.615 2.615 0 0 0-.892 1.023 3.01 3.01 0 0 0-.313 1.352v.773c0 .66.114 1.218.341 1.676.231.455.552.801.961 1.04.409.235.884.352 1.426.352.352 0 .67-.049.954-.147.288-.103.536-.254.745-.455.208-.205.369-.458.483-.761l1.295.363c-.136.44-.366.826-.687 1.16a3.35 3.35 0 0 1-1.194.772 4.42 4.42 0 0 1-1.596.273Zm11.494-5.432V38h-1.341V26.364h1.341v4.272h.114c.204-.45.511-.808.92-1.073.413-.27.962-.404 1.648-.404.595 0 1.115.12 1.562.358a2.41 2.41 0 0 1 1.04 1.085c.25.485.375 1.102.375 1.853V38h-1.341v-5.455c0-.693-.18-1.229-.54-1.608-.356-.382-.85-.573-1.482-.573-.44 0-.834.092-1.182.278a2.028 2.028 0 0 0-.818.813c-.197.356-.296.787-.296 1.295Zm11.771 5.432c-.841 0-1.566-.186-2.176-.557a3.733 3.733 0 0 1-1.403-1.568c-.326-.674-.489-1.459-.489-2.352 0-.894.163-1.682.489-2.364.329-.686.788-1.22 1.375-1.602.591-.387 1.28-.58 2.068-.58.455 0 .903.076 1.347.227a3.34 3.34 0 0 1 1.21.739c.363.337.653.784.869 1.34.216.558.324 1.243.324 2.058v.568h-6.727v-1.16h5.363c0-.492-.098-.931-.295-1.317a2.225 2.225 0 0 0-.83-.915c-.356-.224-.776-.335-1.261-.335-.534 0-.996.132-1.386.397a2.608 2.608 0 0 0-.892 1.023c-.209.42-.313.871-.313 1.352v.773c0 .66.114 1.218.341 1.676.231.455.551.801.96 1.04.409.235.885.352 1.426.352a2.9 2.9 0 0 0 .955-.147c.288-.103.536-.254.744-.455.209-.205.37-.458.483-.761l1.296.363a2.88 2.88 0 0 1-.688 1.16c-.322.329-.72.587-1.193.772a4.43 4.43 0 0 1-1.597.273Zm6.995-11.818V38h-1.341V26.364h1.341Zm2.456 14.909v-12h1.295v1.386h.159c.099-.151.235-.345.409-.58.178-.238.432-.45.762-.636.333-.19.784-.284 1.352-.284.735 0 1.382.184 1.943.551.561.368.998.889 1.313 1.563.314.674.471 1.47.471 2.386 0 .924-.157 1.726-.471 2.404-.315.674-.75 1.197-1.307 1.568-.557.367-1.199.55-1.926.55-.561 0-1.01-.092-1.347-.278-.337-.189-.597-.403-.778-.642a8.77 8.77 0 0 1-.421-.602h-.113v4.614h-1.341Zm1.318-7.637c0 .66.096 1.24.29 1.745.193.5.475.892.846 1.176.371.28.826.42 1.364.42.56 0 1.028-.147 1.403-.443.379-.3.663-.7.853-1.204a4.73 4.73 0 0 0 .289-1.694c0-.613-.094-1.166-.284-1.659-.185-.496-.468-.888-.846-1.176-.375-.291-.847-.437-1.415-.437-.546 0-1.004.138-1.375.414-.371.273-.652.656-.841 1.148-.189.489-.284 1.059-.284 1.71ZM179.314 38l-2.659-8.727h1.409l1.886 6.682h.091l1.864-6.682h1.432l1.841 6.659h.09l1.887-6.66h1.409L185.905 38h-1.318l-1.909-6.704h-.137L180.632 38h-1.318Zm11.023 0v-8.727h1.341V38h-1.341Zm.681-10.182a.954.954 0 0 1-.676-.267.86.86 0 0 1-.278-.642.86.86 0 0 1 .278-.642.955.955 0 0 1 .676-.267c.262 0 .485.089.671.267a.851.851 0 0 1 .284.642c0 .25-.095.464-.284.642a.934.934 0 0 1-.671.267Zm6.911 1.455v1.136h-4.523v-1.136h4.523Zm-3.205-2.091h1.341V35.5c0 .379.055.663.165.852.114.186.258.31.432.375.178.06.365.091.562.091.148 0 .269-.007.364-.023l.227-.045.273 1.205a2.733 2.733 0 0 1-.381.102 2.793 2.793 0 0 1-.619.057 2.7 2.7 0 0 1-1.114-.245 2.212 2.212 0 0 1-.897-.744c-.235-.333-.353-.754-.353-1.261v-8.682Zm6.75 5.568V38h-1.34V26.364h1.34v4.272h.114c.205-.45.511-.808.921-1.073.412-.27.962-.404 1.647-.404.595 0 1.116.12 1.563.358.447.235.793.597 1.04 1.085.25.485.375 1.102.375 1.853V38h-1.341v-5.455c0-.693-.18-1.229-.54-1.608-.356-.382-.851-.573-1.483-.573-.44 0-.833.092-1.182.278a2.035 2.035 0 0 0-.818.813c-.197.356-.296.787-.296 1.295Zm9.863 1.977v-.068c.007-.723.083-1.3.227-1.727.144-.428.348-.775.614-1.04a4.94 4.94 0 0 1 .954-.733c.224-.136.424-.297.602-.483a2.145 2.145 0 0 0 .58-1.471c0-.372-.087-.694-.261-.966a1.764 1.764 0 0 0-.699-.631 2.121 2.121 0 0 0-.972-.222c-.311 0-.61.065-.898.194a1.735 1.735 0 0 0-.721.608c-.193.276-.305.638-.335 1.085h-1.432c.03-.644.197-1.195.5-1.654.307-.458.71-.808 1.21-1.05a3.814 3.814 0 0 1 1.676-.364c.667 0 1.246.132 1.739.397a2.84 2.84 0 0 1 1.147 1.091c.273.462.41.989.41 1.58 0 .416-.065.793-.194 1.13a2.778 2.778 0 0 1-.545.904c-.235.265-.519.5-.852.704a3.496 3.496 0 0 0-.801.66 2.08 2.08 0 0 0-.438.812c-.091.314-.14.706-.148 1.176v.068h-1.363Zm.727 3.364c-.28 0-.521-.1-.722-.301a.987.987 0 0 1-.301-.722c0-.28.101-.52.301-.721a.986.986 0 0 1 .722-.302c.28 0 .521.1.722.302.2.2.301.44.301.721a1.058 1.058 0 0 1-.512.886.972.972 0 0 1-.511.137Z" fill="#868593"/><path fill="#2F2D39" d="M10 60h500v1H10zm12 21a8 8 0 0 1 8-8h460a8 8 0 0 1 8 8v32a8 8 0 0 1-8 8H30a8 8 0 0 1-8-8V81Z"/><mask id="8tgabjyv2c" style="mask-type:alpha" maskUnits="userSpaceOnUse" x="37" y="90" width="14" height="14"><path fill-rule="evenodd" clip-rule="evenodd" d="M44.75 91.167a.75.75 0 1 0-1.5 0v5.083h-5.084a.75.75 0 1 0 0 1.5h5.084v5.083a.75.75 0 1 0 1.5 0V97.75h5.083a.75.75 0 0 0 0-1.5H44.75v-5.083Z" fill="#fff"/></mask><g mask="url(#8tgabjyv2c)"><path fill="#A667E4" d="M34 87h20v20H34z"/></g><path d="M76.67 91.364V103h-1.613l-5.915-8.534h-.108V103h-1.756V91.364h1.625l5.92 8.545h.109v-8.545h1.739Zm6.186 11.812c-.86 0-1.6-.184-2.221-.551a3.735 3.735 0 0 1-1.432-1.563c-.333-.674-.5-1.463-.5-2.369 0-.894.167-1.682.5-2.364a3.882 3.882 0 0 1 1.41-1.596c.605-.383 1.314-.574 2.124-.574.493 0 .97.081 1.432.244.462.163.877.419 1.244.767.368.349.657.802.87 1.358.212.553.318 1.226.318 2.017v.603h-6.938v-1.273h5.273c0-.447-.09-.843-.273-1.188a2.063 2.063 0 0 0-.767-.823c-.326-.201-.708-.302-1.147-.302-.478 0-.894.118-1.25.353a2.364 2.364 0 0 0-.819.909 2.63 2.63 0 0 0-.284 1.21v.994c0 .584.103 1.08.307 1.489.209.409.498.722.87.938.37.212.804.318 1.3.318a2.7 2.7 0 0 0 .881-.137c.265-.094.495-.234.688-.42a1.83 1.83 0 0 0 .443-.688l1.608.29c-.129.474-.36.888-.693 1.244a3.35 3.35 0 0 1-1.245.824c-.496.194-1.062.29-1.699.29Zm7.506-.176-2.568-8.727h1.756l1.71 6.409h.085l1.716-6.41h1.756l1.704 6.381h.085l1.7-6.38h1.755L97.499 103h-1.733l-1.773-6.301h-.13L92.09 103h-1.728Zm22.029-8.58a1.662 1.662 0 0 0-.75-1.25c-.44-.299-.993-.448-1.659-.448-.478 0-.891.075-1.239.227a1.91 1.91 0 0 0-.813.614 1.451 1.451 0 0 0-.284.88c0 .277.065.515.193.716.133.2.305.37.518.506.215.132.447.244.693.335.246.087.483.16.71.216l1.136.295a8.54 8.54 0 0 1 1.142.37c.391.155.752.36 1.086.613.333.254.602.569.806.944.209.374.313.823.313 1.346 0 .659-.171 1.244-.511 1.756-.338.511-.828.915-1.472 1.21-.64.295-1.415.443-2.324.443-.871 0-1.625-.138-2.261-.415-.637-.276-1.135-.668-1.495-1.176-.359-.511-.558-1.117-.596-1.818h1.761c.034.421.171.771.409 1.051.243.277.551.483.926.62.379.132.794.198 1.245.198.496 0 .937-.077 1.324-.233.39-.159.697-.378.92-.659.224-.284.335-.615.335-.994 0-.345-.098-.627-.295-.846a2.185 2.185 0 0 0-.79-.546 7.772 7.772 0 0 0-1.119-.38l-1.375-.376c-.932-.254-1.671-.627-2.216-1.119-.542-.492-.813-1.144-.813-1.954 0-.671.182-1.256.546-1.756.363-.5.856-.889 1.477-1.165.621-.28 1.322-.42 2.102-.42.788 0 1.483.138 2.086.414.606.277 1.083.657 1.431 1.142.349.481.531 1.035.546 1.66h-1.693Zm7.575 8.756c-.86 0-1.6-.184-2.222-.551a3.744 3.744 0 0 1-1.432-1.563c-.333-.674-.5-1.463-.5-2.369 0-.894.167-1.682.5-2.364a3.892 3.892 0 0 1 1.41-1.596c.606-.383 1.314-.574 2.125-.574.492 0 .969.081 1.431.244.463.163.877.419 1.245.767.367.349.657.802.869 1.358.212.553.318 1.226.318 2.017v.603h-6.937v-1.273h5.272c0-.447-.09-.843-.272-1.188a2.067 2.067 0 0 0-.767-.823c-.326-.201-.709-.302-1.148-.302-.477 0-.894.118-1.25.353a2.364 2.364 0 0 0-.818.909c-.19.371-.284.775-.284 1.21v.994c0 .584.102 1.08.306 1.489.209.409.499.722.87.938.371.212.805.318 1.301.318.322 0 .615-.046.881-.137.265-.094.494-.234.687-.42.193-.186.341-.415.443-.688l1.608.29c-.129.474-.36.888-.693 1.244a3.346 3.346 0 0 1-1.244.824c-.496.194-1.063.29-1.699.29Zm5.629-.176v-8.727h1.642v1.386h.091c.159-.47.44-.839.841-1.108a2.404 2.404 0 0 1 1.375-.409 7.242 7.242 0 0 1 .722.04v1.625a3.1 3.1 0 0 0-.364-.063 3.466 3.466 0 0 0-.523-.04 2.22 2.22 0 0 0-1.074.256 1.903 1.903 0 0 0-1.011 1.71V103h-1.699Zm13.872-8.727L136.303 103h-1.819l-3.17-8.727h1.824l2.21 6.716h.091l2.204-6.716h1.824Zm1.597 8.727v-8.727h1.699V103h-1.699Zm.858-10.074c-.296 0-.549-.098-.761-.295a.959.959 0 0 1-.313-.716c0-.28.104-.52.313-.716.212-.2.465-.301.761-.301.295 0 .547.1.756.3a.941.941 0 0 1 .318.717.953.953 0 0 1-.318.716 1.063 1.063 0 0 1-.756.295Zm6.802 10.25c-.844 0-1.572-.191-2.181-.574a3.798 3.798 0 0 1-1.398-1.596c-.326-.678-.489-1.455-.489-2.33 0-.886.167-1.668.5-2.347a3.834 3.834 0 0 1 1.409-1.596c.606-.383 1.32-.574 2.142-.574.663 0 1.254.123 1.773.37.519.242.938.583 1.256 1.022.322.44.513.953.574 1.54h-1.654a1.98 1.98 0 0 0-.625-1.057c-.322-.295-.754-.443-1.295-.443-.474 0-.888.125-1.245.375-.352.246-.626.598-.823 1.057-.197.454-.296.992-.296 1.613 0 .637.097 1.186.29 1.648.193.462.466.82.818 1.074.356.254.775.381 1.256.381.322 0 .613-.059.875-.177a1.78 1.78 0 0 0 .665-.517 1.95 1.95 0 0 0 .38-.806h1.654a3.225 3.225 0 0 1-.551 1.511 3.168 3.168 0 0 1-1.233 1.045c-.512.254-1.112.381-1.802.381Zm9.164 0c-.86 0-1.601-.184-2.222-.551a3.738 3.738 0 0 1-1.432-1.563c-.333-.674-.5-1.463-.5-2.369 0-.894.167-1.682.5-2.364a3.883 3.883 0 0 1 1.409-1.596c.607-.383 1.315-.574 2.125-.574.493 0 .97.081 1.432.244.462.163.877.419 1.245.767.367.349.657.802.869 1.358.212.553.318 1.226.318 2.017v.603h-6.937v-1.273h5.272a2.52 2.52 0 0 0-.272-1.188 2.067 2.067 0 0 0-.767-.823c-.326-.201-.709-.302-1.148-.302-.477 0-.894.118-1.25.353a2.364 2.364 0 0 0-.818.909c-.19.371-.284.775-.284 1.21v.994c0 .584.102 1.08.306 1.489.209.409.498.722.87.938.371.212.805.318 1.301.318.322 0 .615-.046.881-.137.265-.094.494-.234.687-.42.193-.186.341-.415.443-.688l1.608.29c-.129.474-.36.888-.693 1.244-.33.353-.744.627-1.244.824-.497.194-1.063.29-1.699.29Z" fill="#fff"/><mask id="uy815uvaid" style="mask-type:alpha" maskUnits="userSpaceOnUse" x="37" y="138" width="14" height="14"><path fill-rule="evenodd" clip-rule="evenodd" d="M44.75 139.167a.75.75 0 1 0-1.5 0v5.083h-5.084a.75.75 0 0 0 0 1.5h5.084v5.083a.75.75 0 1 0 1.5 0v-5.083h5.083a.75.75 0 0 0 0-1.5H44.75v-5.083Z" fill="#fff"/></mask><g mask="url(#uy815uvaid)"><path fill="#853BCE" d="M34 135h20v20H34z"/></g><path d="M76.636 139.364V151h-1.363l-6.341-9.136h-.114V151H67.41v-11.636h1.364l6.363 9.159h.114v-9.159h1.386Zm6.297 11.818c-.84 0-1.566-.186-2.176-.557a3.74 3.74 0 0 1-1.403-1.568c-.326-.674-.489-1.459-.489-2.352 0-.894.163-1.682.489-2.364.33-.686.788-1.22 1.375-1.602.59-.387 1.28-.58 2.068-.58.454 0 .903.076 1.347.227.443.152.846.398 1.21.739.363.337.653.784.869 1.341.216.557.324 1.242.324 2.057v.568H79.82v-1.159h5.363c0-.493-.098-.932-.295-1.318a2.22 2.22 0 0 0-.83-.915c-.356-.224-.776-.335-1.261-.335-.534 0-.996.132-1.386.397a2.624 2.624 0 0 0-.892 1.023 3.004 3.004 0 0 0-.313 1.352v.773c0 .659.114 1.218.34 1.676.232.455.552.801.961 1.04.41.235.885.352 1.426.352.352 0 .67-.049.955-.147a2.05 2.05 0 0 0 .744-.455c.208-.205.37-.458.483-.761l1.296.363c-.137.44-.366.826-.688 1.159-.322.33-.72.587-1.193.773a4.421 4.421 0 0 1-1.597.273Zm7.63-.182-2.658-8.727h1.409l1.886 6.682h.091l1.864-6.682h1.432l1.84 6.659h.091l1.887-6.659h1.409L97.154 151h-1.317l-1.91-6.705h-.136L91.882 151h-1.318Zm15.705 0v-11.636h7.023v1.25h-5.613v3.931h5.25v1.25h-5.25v3.955h5.704V151h-7.114Zm10.722-5.25V151h-1.341v-8.727h1.296v1.363h.113c.205-.443.515-.799.932-1.068.417-.273.955-.409 1.614-.409.591 0 1.108.121 1.551.364.443.238.788.602 1.034 1.091.246.484.369 1.098.369 1.841V151h-1.341v-5.455c0-.685-.178-1.219-.534-1.602-.356-.386-.844-.579-1.466-.579-.428 0-.81.092-1.147.278a1.985 1.985 0 0 0-.79.813c-.193.356-.29.787-.29 1.295Zm14.842-3.477L128.605 151h-1.364l-3.227-8.727h1.455l2.409 6.954h.091l2.409-6.954h1.454Zm1.77 8.727v-8.727h1.341V151h-1.341Zm.682-10.182a.953.953 0 0 1-.676-.267.856.856 0 0 1-.278-.642c0-.25.092-.464.278-.642a.953.953 0 0 1 .676-.267c.261 0 .485.089.671.267a.851.851 0 0 1 .284.642c0 .25-.095.464-.284.642a.936.936 0 0 1-.671.267ZM137.399 151v-8.727h1.296v1.318h.091c.159-.432.446-.782.863-1.051a2.544 2.544 0 0 1 1.409-.404c.099 0 .222.002.37.006.147.004.259.01.335.017v1.364a3.462 3.462 0 0 0-.313-.051 3.014 3.014 0 0 0-.505-.04c-.425 0-.803.089-1.137.267a2.019 2.019 0 0 0-.784.727 1.963 1.963 0 0 0-.284 1.051V151h-1.341Zm9.233.182c-.788 0-1.479-.188-2.074-.563-.591-.375-1.053-.899-1.386-1.574-.33-.674-.494-1.462-.494-2.363 0-.909.164-1.703.494-2.381.333-.678.795-1.204 1.386-1.579.595-.375 1.286-.563 2.074-.563.788 0 1.477.188 2.068.563.595.375 1.057.901 1.387 1.579.333.678.5 1.472.5 2.381 0 .901-.167 1.689-.5 2.363-.33.675-.792 1.199-1.387 1.574-.591.375-1.28.563-2.068.563Zm0-1.205c.599 0 1.091-.153 1.477-.46.387-.307.673-.71.858-1.21.186-.5.279-1.042.279-1.625 0-.584-.093-1.127-.279-1.631a2.732 2.732 0 0 0-.858-1.221c-.386-.311-.878-.466-1.477-.466-.598 0-1.091.155-1.477.466-.387.31-.673.717-.858 1.221a4.672 4.672 0 0 0-.279 1.631c0 .583.093 1.125.279 1.625.185.5.471.903.858 1.21.386.307.879.46 1.477.46Zm7.342-4.227V151h-1.34v-8.727h1.295v1.363h.114c.204-.443.515-.799.931-1.068.417-.273.955-.409 1.614-.409.591 0 1.108.121 1.551.364.443.238.788.602 1.034 1.091.247.484.37 1.098.37 1.841V151h-1.341v-5.455c0-.685-.178-1.219-.534-1.602-.356-.386-.845-.579-1.466-.579-.428 0-.811.092-1.148.278a1.992 1.992 0 0 0-.79.813c-.193.356-.29.787-.29 1.295Zm8.019 5.25v-8.727h1.295v1.363h.114c.182-.466.475-.827.881-1.085.405-.261.892-.392 1.46-.392.576 0 1.055.131 1.437.392.387.258.688.619.904 1.085h.091c.223-.45.558-.808 1.005-1.074.447-.268.983-.403 1.608-.403.781 0 1.419.244 1.915.733.496.485.744 1.241.744 2.267V151h-1.34v-5.841c0-.644-.177-1.104-.529-1.381a1.957 1.957 0 0 0-1.244-.414c-.614 0-1.089.185-1.426.556-.337.368-.506.834-.506 1.398V151h-1.364v-5.977c0-.496-.161-.896-.483-1.199-.322-.307-.736-.46-1.244-.46-.348 0-.674.092-.977.278a2.1 2.1 0 0 0-.727.773 2.277 2.277 0 0 0-.273 1.13V151h-1.341Zm17.565.182c-.841 0-1.566-.186-2.176-.557a3.736 3.736 0 0 1-1.403-1.568c-.326-.674-.489-1.459-.489-2.352 0-.894.163-1.682.489-2.364.329-.686.788-1.22 1.375-1.602.591-.387 1.28-.58 2.068-.58.454 0 .903.076 1.346.227.444.152.847.398 1.211.739.363.337.653.784.869 1.341.216.557.324 1.242.324 2.057v.568h-6.727v-1.159h5.363c0-.493-.098-.932-.295-1.318a2.219 2.219 0 0 0-.83-.915c-.356-.224-.776-.335-1.261-.335-.534 0-.996.132-1.386.397a2.627 2.627 0 0 0-.893 1.023 3.01 3.01 0 0 0-.312 1.352v.773c0 .659.114 1.218.341 1.676.231.455.551.801.96 1.04.409.235.885.352 1.426.352.353 0 .671-.049.955-.147.288-.103.536-.254.744-.455.208-.205.369-.458.483-.761l1.296.363c-.137.44-.366.826-.688 1.159-.322.33-.72.587-1.193.773a4.425 4.425 0 0 1-1.597.273Zm6.995-5.432V151h-1.341v-8.727h1.295v1.363h.114c.204-.443.515-.799.932-1.068.416-.273.954-.409 1.613-.409.591 0 1.108.121 1.551.364.444.238.788.602 1.034 1.091.247.484.37 1.098.37 1.841V151h-1.341v-5.455c0-.685-.178-1.219-.534-1.602-.356-.386-.845-.579-1.466-.579-.428 0-.811.092-1.148.278a1.998 1.998 0 0 0-.79.813c-.193.356-.289.787-.289 1.295Zm11.813-3.477v1.136h-4.522v-1.136h4.522Zm-3.204-2.091h1.341v8.318c0 .379.055.663.165.852a.847.847 0 0 0 .431.375c.178.061.366.091.563.091.148 0 .269-.007.364-.023l.227-.045.273 1.205a2.74 2.74 0 0 1-.381.102 2.792 2.792 0 0 1-.619.057 2.7 2.7 0 0 1-1.114-.245 2.217 2.217 0 0 1-.898-.744c-.235-.333-.352-.754-.352-1.261v-8.682Z" fill="#868593"/><mask id="4dfk4d8tve" style="mask-type:alpha" maskUnits="userSpaceOnUse" x="34" y="185" width="20" height="16"><path fill-rule="evenodd" clip-rule="evenodd" d="M36.416 187.75c0-.587.445-1 .917-1h13.333c.473 0 .917.413.917 1v3.5c0 .587-.444 1-.917 1H37.333c-.472 0-.917-.413-.917-1v-3.5Zm-.809 5.25a2.55 2.55 0 0 1-.69-1.75v-3.5c0-1.346 1.047-2.5 2.416-2.5h13.333c1.37 0 2.417 1.154 2.417 2.5v3.5a2.55 2.55 0 0 1-.69 1.75c.43.456.69 1.079.69 1.75v3.5c0 1.346-1.048 2.5-2.417 2.5H37.333c-1.369 0-2.417-1.154-2.417-2.5v-3.5c0-.671.26-1.294.691-1.75Zm1.726.75c-.472 0-.917.413-.917 1v3.5c0 .587.445 1 .917 1h13.333c.473 0 .917-.413.917-1v-3.5c0-.587-.444-1-.917-1H37.333ZM38 189.5a1 1 0 0 1 1-1h.008a1 1 0 0 1 0 2H39a1 1 0 0 1-1-1Zm1 6a1 1 0 0 0 0 2h.008a1 1 0 0 0 0-2H39Z" fill="#fff"/></mask><g mask="url(#4dfk4d8tve)"><path fill="#868593" d="M34 183h20v20H34z"/></g><path d="M76.773 191h-1.41a2.93 2.93 0 0 0-1.187-1.841 3.183 3.183 0 0 0-.972-.477 3.882 3.882 0 0 0-1.113-.159 3.55 3.55 0 0 0-1.915.534c-.568.356-1.02.881-1.358 1.574-.333.693-.5 1.543-.5 2.551 0 1.007.167 1.858.5 2.551.337.693.79 1.218 1.358 1.574a3.55 3.55 0 0 0 1.915.534c.386 0 .758-.053 1.114-.159.356-.106.68-.263.971-.472a2.989 2.989 0 0 0 1.188-1.846h1.409a4.69 4.69 0 0 1-.58 1.596c-.28.47-.629.87-1.045 1.199a4.561 4.561 0 0 1-1.404.744 5.215 5.215 0 0 1-1.653.256c-.992 0-1.875-.242-2.648-.727-.772-.485-1.38-1.174-1.824-2.068-.443-.894-.665-1.955-.665-3.182 0-1.227.222-2.288.665-3.182.444-.894 1.052-1.583 1.824-2.068.773-.485 1.656-.727 2.648-.727.587 0 1.138.085 1.653.255.52.171.987.421 1.404.75.416.326.765.724 1.045 1.193.28.466.474.999.58 1.597Zm3.436 2.75V199h-1.341v-11.636h1.34v4.272h.114c.205-.45.512-.808.92-1.074.414-.268.963-.403 1.649-.403.594 0 1.115.119 1.562.358a2.41 2.41 0 0 1 1.04 1.085c.25.485.375 1.103.375 1.853V199h-1.341v-5.455c0-.693-.18-1.229-.54-1.607-.356-.383-.85-.574-1.483-.574-.44 0-.833.092-1.182.278a2.032 2.032 0 0 0-.818.813c-.197.356-.295.787-.295 1.295Zm10.68 5.455a3.552 3.552 0 0 1-1.505-.313 2.581 2.581 0 0 1-1.074-.915c-.266-.401-.398-.886-.398-1.454 0-.5.098-.906.295-1.216.197-.315.46-.561.79-.739.33-.178.693-.31 1.091-.398.402-.09.805-.162 1.21-.215.53-.069.96-.12 1.29-.154.333-.038.576-.1.727-.187.156-.087.233-.239.233-.455v-.045c0-.561-.153-.997-.46-1.307-.303-.311-.763-.466-1.38-.466-.64 0-1.143.14-1.506.42-.364.281-.62.58-.767.898l-1.273-.454c.227-.531.53-.944.909-1.239.383-.299.8-.508 1.25-.625a5.2 5.2 0 0 1 1.34-.182c.281 0 .603.034.967.102.367.065.721.199 1.062.404.345.204.631.513.858.926.228.413.341.966.341 1.659V199h-1.34v-1.182h-.069a2.33 2.33 0 0 1-.454.608c-.213.216-.495.4-.847.551-.352.152-.782.228-1.29.228Zm.205-1.205c.53 0 .977-.104 1.34-.312a2.13 2.13 0 0 0 1.114-1.847v-1.227c-.056.068-.181.13-.375.187-.19.053-.409.101-.659.142a27.7 27.7 0 0 1-.721.102c-.231.027-.419.05-.563.069a5.11 5.11 0 0 0-.977.221c-.3.099-.542.248-.727.449-.182.197-.273.466-.273.807 0 .466.172.818.517 1.057.348.235.79.352 1.324.352Zm7.584-4.25V199h-1.341v-8.727h1.295v1.363h.114c.204-.443.515-.799.932-1.068.416-.273.954-.409 1.613-.409.591 0 1.108.121 1.551.364.444.238.788.602 1.034 1.091.247.484.37 1.098.37 1.841V199h-1.341v-5.455c0-.685-.178-1.219-.534-1.602-.356-.386-.845-.579-1.466-.579-.428 0-.811.092-1.148.278a1.99 1.99 0 0 0-.79.813c-.193.356-.29.787-.29 1.295Zm11.541 8.705c-.648 0-1.205-.084-1.671-.25a3.535 3.535 0 0 1-1.164-.648 3.518 3.518 0 0 1-.733-.852l1.068-.75c.121.159.274.34.46.545.186.208.439.388.761.54.326.155.752.233 1.279.233.704 0 1.286-.171 1.744-.512.458-.341.688-.875.688-1.602v-1.773h-.114a7.374 7.374 0 0 1-.421.591c-.178.231-.435.438-.772.62-.334.178-.784.267-1.353.267-.704 0-1.337-.167-1.897-.5-.557-.334-.998-.819-1.324-1.455-.322-.636-.483-1.409-.483-2.318 0-.894.157-1.672.472-2.335.314-.667.751-1.182 1.312-1.546.561-.367 1.208-.551 1.943-.551.568 0 1.019.095 1.352.284.338.186.595.398.773.637.182.234.322.428.421.579h.136v-1.386h1.295v8.977c0 .75-.17 1.36-.511 1.83a2.91 2.91 0 0 1-1.364 1.039 5.13 5.13 0 0 1-1.897.336Zm-.046-4.796c.538 0 .993-.123 1.364-.369.371-.246.653-.601.847-1.063.193-.462.289-1.015.289-1.659 0-.629-.094-1.184-.284-1.665-.189-.481-.469-.858-.841-1.13-.371-.273-.829-.409-1.375-.409-.568 0-1.041.144-1.42.431a2.637 2.637 0 0 0-.847 1.16 4.487 4.487 0 0 0-.278 1.613c0 .606.095 1.142.284 1.608.193.462.477.826.852 1.091.379.261.849.392 1.409.392Zm9.932 1.523c-.841 0-1.566-.186-2.176-.557a3.736 3.736 0 0 1-1.403-1.568c-.326-.674-.489-1.459-.489-2.352 0-.894.163-1.682.489-2.364.329-.686.787-1.22 1.375-1.602.59-.387 1.28-.58 2.068-.58.454 0 .903.076 1.346.227.444.152.847.398 1.211.739.363.337.653.784.869 1.341.216.557.324 1.242.324 2.057v.568h-6.728v-1.159h5.364c0-.493-.098-.932-.295-1.318a2.226 2.226 0 0 0-.83-.915c-.356-.224-.776-.335-1.261-.335-.534 0-.996.132-1.387.397a2.633 2.633 0 0 0-.892 1.023 3.01 3.01 0 0 0-.312 1.352v.773c0 .659.113 1.218.341 1.676.231.455.551.801.96 1.04.409.235.884.352 1.426.352.352 0 .671-.049.955-.147.288-.103.536-.254.744-.455.208-.205.369-.458.483-.761l1.295.363a2.86 2.86 0 0 1-.687 1.159c-.322.33-.72.587-1.193.773a4.425 4.425 0 0 1-1.597.273ZM130.44 199v-11.636h7.023v1.25h-5.614v3.931h5.25v1.25h-5.25v3.955h5.705V199h-7.114Zm10.722-5.25V199h-1.341v-8.727h1.295v1.363h.114c.205-.443.515-.799.932-1.068.417-.273.954-.409 1.614-.409.59 0 1.108.121 1.551.364.443.238.788.602 1.034 1.091.246.484.369 1.098.369 1.841V199h-1.341v-5.455c0-.685-.178-1.219-.534-1.602-.356-.386-.845-.579-1.466-.579-.428 0-.81.092-1.148.278a1.99 1.99 0 0 0-.789.813c-.193.356-.29.787-.29 1.295Zm14.842-3.477L152.777 199h-1.364l-3.227-8.727h1.455l2.409 6.954h.091l2.409-6.954h1.454Zm1.77 8.727v-8.727h1.341V199h-1.341Zm.682-10.182a.953.953 0 0 1-.676-.267.857.857 0 0 1-.279-.642c0-.25.093-.464.279-.642a.953.953 0 0 1 .676-.267c.261 0 .485.089.67.267.19.178.285.392.285.642s-.095.464-.285.642a.932.932 0 0 1-.67.267ZM161.571 199v-8.727h1.295v1.318h.091c.159-.432.447-.782.864-1.051a2.542 2.542 0 0 1 1.409-.404c.099 0 .222.002.369.006.148.004.26.01.336.017v1.364a3.462 3.462 0 0 0-.313-.051 3.017 3.017 0 0 0-.506-.04c-.424 0-.803.089-1.136.267a2.019 2.019 0 0 0-.784.727 1.963 1.963 0 0 0-.284 1.051V199h-1.341Zm9.233.182c-.788 0-1.479-.188-2.074-.563-.591-.375-1.053-.899-1.386-1.574-.33-.674-.495-1.462-.495-2.363 0-.909.165-1.703.495-2.381.333-.678.795-1.204 1.386-1.579.595-.375 1.286-.563 2.074-.563.788 0 1.477.188 2.068.563.595.375 1.057.901 1.387 1.579.333.678.5 1.472.5 2.381 0 .901-.167 1.689-.5 2.363-.33.675-.792 1.199-1.387 1.574-.591.375-1.28.563-2.068.563Zm0-1.205c.598 0 1.091-.153 1.477-.46.387-.307.673-.71.858-1.21.186-.5.279-1.042.279-1.625 0-.584-.093-1.127-.279-1.631a2.732 2.732 0 0 0-.858-1.221c-.386-.311-.879-.466-1.477-.466-.599 0-1.091.155-1.477.466-.387.31-.673.717-.858 1.221a4.672 4.672 0 0 0-.279 1.631c0 .583.093 1.125.279 1.625.185.5.471.903.858 1.21.386.307.878.46 1.477.46Zm7.342-4.227V199h-1.341v-8.727h1.296v1.363h.113c.205-.443.516-.799.932-1.068.417-.273.955-.409 1.614-.409.591 0 1.108.121 1.551.364.443.238.788.602 1.034 1.091.246.484.369 1.098.369 1.841V199h-1.34v-5.455c0-.685-.178-1.219-.535-1.602-.356-.386-.844-.579-1.465-.579-.428 0-.811.092-1.148.278a1.992 1.992 0 0 0-.79.813c-.193.356-.29.787-.29 1.295Zm8.019 5.25v-8.727h1.295v1.363h.114c.182-.466.475-.827.881-1.085.405-.261.892-.392 1.46-.392.576 0 1.055.131 1.437.392.387.258.688.619.904 1.085h.091c.223-.45.558-.808 1.005-1.074.447-.268.983-.403 1.608-.403.781 0 1.419.244 1.915.733.496.485.744 1.241.744 2.267V199h-1.341v-5.841c0-.644-.176-1.104-.528-1.381a1.957 1.957 0 0 0-1.244-.414c-.614 0-1.089.185-1.426.556-.338.368-.506.834-.506 1.398V199h-1.364v-5.977c0-.496-.161-.896-.483-1.199-.322-.307-.736-.46-1.244-.46-.349 0-.674.092-.977.278-.3.186-.542.443-.728.773a2.288 2.288 0 0 0-.272 1.13V199h-1.341Zm17.565.182c-.841 0-1.566-.186-2.176-.557a3.736 3.736 0 0 1-1.403-1.568c-.326-.674-.489-1.459-.489-2.352 0-.894.163-1.682.489-2.364.329-.686.787-1.22 1.375-1.602.59-.387 1.28-.58 2.068-.58.454 0 .903.076 1.346.227.444.152.847.398 1.211.739.363.337.653.784.869 1.341.216.557.324 1.242.324 2.057v.568h-6.728v-1.159h5.364c0-.493-.098-.932-.295-1.318a2.226 2.226 0 0 0-.83-.915c-.356-.224-.776-.335-1.261-.335-.534 0-.996.132-1.387.397a2.633 2.633 0 0 0-.892 1.023 3.01 3.01 0 0 0-.312 1.352v.773c0 .659.113 1.218.341 1.676.231.455.551.801.96 1.04.409.235.884.352 1.426.352.352 0 .671-.049.955-.147.288-.103.536-.254.744-.455.208-.205.369-.458.483-.761l1.295.363a2.86 2.86 0 0 1-.687 1.159c-.322.33-.72.587-1.193.773a4.425 4.425 0 0 1-1.597.273Zm6.994-5.432V199h-1.34v-8.727h1.295v1.363h.114c.204-.443.515-.799.931-1.068.417-.273.955-.409 1.614-.409.591 0 1.108.121 1.551.364.443.238.788.602 1.034 1.091.247.484.37 1.098.37 1.841V199h-1.341v-5.455c0-.685-.178-1.219-.534-1.602-.356-.386-.845-.579-1.466-.579-.428 0-.811.092-1.148.278a1.992 1.992 0 0 0-.79.813c-.193.356-.29.787-.29 1.295Zm11.814-3.477v1.136h-4.522v-1.136h4.522Zm-3.204-2.091h1.341v8.318c0 .379.055.663.164.852a.853.853 0 0 0 .432.375c.178.061.366.091.563.091.148 0 .269-.007.363-.023l.228-.045.272 1.205c-.09.034-.217.068-.38.102-.163.038-.37.057-.62.057-.378 0-.75-.082-1.113-.245a2.217 2.217 0 0 1-.898-.744c-.235-.333-.352-.754-.352-1.261v-8.682Z" fill="#868593"/><path d="m475 199 6-6-6-6" stroke="#A1A0AB" stroke-width="1.5"/><path d="M44 243.5a2.5 2.5 0 1 0 0-5 2.5 2.5 0 0 0 0 5Z" stroke="#868593" stroke-width="1.5" stroke-linecap="round" stroke-linejoin="round"/><path d="M50.167 243.5a1.374 1.374 0 0 0 .275 1.517l.05.05a1.664 1.664 0 0 1 0 2.358 1.668 1.668 0 0 1-2.359 0l-.05-.05a1.376 1.376 0 0 0-1.516-.275 1.376 1.376 0 0 0-.834 1.258v.142a1.669 1.669 0 0 1-1.666 1.667A1.669 1.669 0 0 1 42.4 248.5v-.075a1.377 1.377 0 0 0-.9-1.258 1.375 1.375 0 0 0-1.517.275l-.05.05a1.665 1.665 0 0 1-2.72-1.818c.084-.202.207-.386.362-.541l.05-.05a1.37 1.37 0 0 0 .275-1.516 1.372 1.372 0 0 0-1.258-.834H36.5a1.665 1.665 0 0 1-1.667-1.666A1.668 1.668 0 0 1 36.5 239.4h.075a1.375 1.375 0 0 0 1.258-.9 1.373 1.373 0 0 0-.275-1.517l-.05-.05a1.664 1.664 0 0 1 0-2.358 1.668 1.668 0 0 1 2.359 0l.05.05a1.376 1.376 0 0 0 1.516.275h.067a1.375 1.375 0 0 0 .833-1.258v-.142A1.664 1.664 0 0 1 44 231.833a1.666 1.666 0 0 1 1.667 1.667v.075a1.377 1.377 0 0 0 .833 1.258 1.375 1.375 0 0 0 1.517-.275l.05-.05a1.664 1.664 0 0 1 2.358 0 1.673 1.673 0 0 1 .362 1.818 1.673 1.673 0 0 1-.362.541l-.05.05a1.374 1.374 0 0 0-.275 1.516v.067a1.372 1.372 0 0 0 1.258.833h.142A1.666 1.666 0 0 1 53.167 241a1.668 1.668 0 0 1-1.667 1.667h-.075a1.374 1.374 0 0 0-1.258.833Z" stroke="#868593" stroke-width="1.5" stroke-linecap="round" stroke-linejoin="round"/><path d="M67.41 247v-11.636h3.93c.914 0 1.66.164 2.24.494.583.326 1.015.767 1.295 1.324s.42 1.178.42 1.863c0 .686-.14 1.309-.42 1.87-.276.56-.704 1.007-1.284 1.341-.58.329-1.322.494-2.227.494h-2.819v-1.25h2.773c.625 0 1.127-.108 1.506-.324a1.93 1.93 0 0 0 .824-.875 2.92 2.92 0 0 0 .261-1.256 2.89 2.89 0 0 0-.261-1.25 1.863 1.863 0 0 0-.83-.863c-.382-.212-.89-.318-1.522-.318h-2.478V247H67.41Zm9.974 0v-8.727h1.295v1.318h.09c.16-.432.448-.782.864-1.051a2.542 2.542 0 0 1 1.41-.404c.098 0 .221.002.369.006s.26.01.335.017v1.364a3.42 3.42 0 0 0-.312-.051 3.023 3.023 0 0 0-.506-.04c-.424 0-.803.089-1.136.267-.33.174-.591.417-.785.727a1.96 1.96 0 0 0-.284 1.051V247h-1.34Zm9.233.182c-.788 0-1.48-.188-2.074-.563-.591-.375-1.053-.899-1.387-1.574-.33-.674-.494-1.462-.494-2.363 0-.909.165-1.703.494-2.381.334-.678.796-1.204 1.387-1.579.594-.375 1.286-.563 2.073-.563.788 0 1.478.188 2.069.563.594.375 1.056.901 1.386 1.579.333.678.5 1.472.5 2.381 0 .901-.167 1.689-.5 2.363a3.764 3.764 0 0 1-1.386 1.574c-.591.375-1.28.563-2.069.563Zm0-1.205c.598 0 1.09-.153 1.477-.46a2.72 2.72 0 0 0 .858-1.21c.185-.5.278-1.042.278-1.625a4.68 4.68 0 0 0-.278-1.631 2.742 2.742 0 0 0-.858-1.221c-.387-.311-.879-.466-1.477-.466-.599 0-1.091.155-1.478.466-.386.31-.672.717-.858 1.221a4.68 4.68 0 0 0-.278 1.631c0 .583.093 1.125.278 1.625.186.5.472.903.858 1.21.387.307.879.46 1.478.46Zm6-7.704h1.342v9.363c0 .538-.093 1.004-.279 1.398a2.005 2.005 0 0 1-.83.915c-.367.216-.83.324-1.391.324h-.273v-1.25h.25c.41 0 .708-.121.898-.364.19-.239.284-.579.284-1.023v-9.363Zm.66-1.455a.953.953 0 0 1-.676-.267.858.858 0 0 1-.279-.642c0-.25.093-.464.279-.642a.953.953 0 0 1 .676-.267c.261 0 .485.089.67.267a.85.85 0 0 1 .284.642.85.85 0 0 1-.284.642.934.934 0 0 1-.67.267Zm6.797 10.364c-.841 0-1.566-.186-2.176-.557a3.74 3.74 0 0 1-1.404-1.568c-.325-.674-.488-1.459-.488-2.352 0-.894.163-1.682.488-2.364.33-.686.788-1.22 1.375-1.602.591-.387 1.28-.58 2.069-.58.454 0 .903.076 1.346.227.443.152.847.398 1.21.739.364.337.654.784.87 1.341.216.557.324 1.242.324 2.057v.568H96.96v-1.159h5.364c0-.493-.099-.932-.296-1.318a2.217 2.217 0 0 0-.829-.915c-.356-.224-.777-.335-1.261-.335-.535 0-.997.132-1.387.397a2.625 2.625 0 0 0-.892 1.023 3.006 3.006 0 0 0-.312 1.352v.773c0 .659.113 1.218.34 1.676.232.455.552.801.96 1.04.41.235.885.352 1.427.352.352 0 .67-.049.954-.147.288-.103.536-.254.745-.455.208-.205.369-.458.483-.761l1.295.363a2.86 2.86 0 0 1-.687 1.159 3.35 3.35 0 0 1-1.194.773 4.416 4.416 0 0 1-1.596.273Zm9.199 0c-.818 0-1.523-.193-2.114-.58a3.78 3.78 0 0 1-1.364-1.596c-.318-.678-.477-1.453-.477-2.324 0-.887.163-1.669.489-2.347.329-.682.788-1.214 1.375-1.596.591-.387 1.28-.58 2.068-.58.614 0 1.167.114 1.659.341.493.227.896.545 1.21.955.315.409.51.886.586 1.431h-1.341c-.103-.397-.33-.75-.682-1.056-.349-.311-.818-.466-1.409-.466-.523 0-.981.136-1.375.409-.39.269-.695.649-.915 1.142-.216.488-.324 1.062-.324 1.721 0 .675.106 1.262.318 1.762.216.5.519.888.909 1.164.394.277.856.415 1.387.415.348 0 .665-.06.949-.182.284-.121.524-.295.721-.522.197-.228.337-.5.421-.818h1.341a3.114 3.114 0 0 1-.563 1.392 3.142 3.142 0 0 1-1.176.977c-.485.238-1.049.358-1.693.358Zm9.187-8.909v1.136h-4.522v-1.136h4.522Zm-3.204-2.091h1.341v8.318c0 .379.055.663.164.852a.853.853 0 0 0 .432.375c.178.061.366.091.563.091.147 0 .269-.007.363-.023l.228-.045.272 1.205a2.72 2.72 0 0 1-.38.102c-.163.038-.37.057-.62.057-.378 0-.75-.082-1.113-.245a2.217 2.217 0 0 1-.898-.744c-.235-.333-.352-.754-.352-1.261v-8.682Zm16.267 2.091a1.783 1.783 0 0 0-.83-1.341c-.485-.318-1.079-.477-1.784-.477-.515 0-.966.083-1.352.25a2.15 2.15 0 0 0-.898.687 1.649 1.649 0 0 0-.318.994c0 .311.074.578.221.802.152.219.345.403.58.551.235.144.481.263.739.358.257.09.494.164.71.221l1.182.318c.303.08.64.19 1.011.33.375.14.733.331 1.074.574.345.238.629.545.852.92.224.375.335.835.335 1.381 0 .629-.164 1.197-.494 1.704-.326.508-.803.911-1.432 1.211-.625.299-1.384.449-2.278.449-.833 0-1.555-.135-2.165-.404-.606-.269-1.083-.644-1.432-1.125a3.22 3.22 0 0 1-.585-1.676h1.455c.038.439.185.803.443 1.091.261.284.591.496.988.636.402.137.834.205 1.296.205.538 0 1.021-.087 1.449-.262.428-.178.767-.424 1.017-.738.25-.318.375-.69.375-1.114 0-.386-.108-.701-.324-.943a2.39 2.39 0 0 0-.852-.591 9.14 9.14 0 0 0-1.142-.398l-1.432-.409c-.909-.261-1.629-.634-2.159-1.119-.531-.485-.796-1.119-.796-1.903 0-.652.176-1.22.529-1.705a3.503 3.503 0 0 1 1.432-1.136c.602-.273 1.274-.409 2.017-.409.75 0 1.416.134 2 .403.583.265 1.045.629 1.386 1.091.345.462.526.987.545 1.574h-1.363Zm7.316 8.909c-.84 0-1.566-.186-2.176-.557a3.736 3.736 0 0 1-1.403-1.568c-.326-.674-.489-1.459-.489-2.352 0-.894.163-1.682.489-2.364.329-.686.788-1.22 1.375-1.602.591-.387 1.28-.58 2.068-.58.455 0 .904.076 1.347.227.443.152.846.398 1.21.739.364.337.653.784.869 1.341.216.557.324 1.242.324 2.057v.568h-6.727v-1.159h5.363c0-.493-.098-.932-.295-1.318a2.219 2.219 0 0 0-.83-.915c-.356-.224-.776-.335-1.261-.335-.534 0-.996.132-1.386.397a2.617 2.617 0 0 0-.892 1.023 2.997 2.997 0 0 0-.313 1.352v.773c0 .659.114 1.218.341 1.676.231.455.551.801.96 1.04.409.235.885.352 1.426.352.353 0 .671-.049.955-.147.288-.103.536-.254.744-.455.209-.205.37-.458.483-.761l1.296.363c-.137.44-.366.826-.688 1.159-.322.33-.719.587-1.193.773a4.421 4.421 0 0 1-1.597.273Zm9.449-8.909v1.136h-4.522v-1.136h4.522Zm-3.204-2.091h1.341v8.318c0 .379.055.663.164.852a.853.853 0 0 0 .432.375c.178.061.366.091.563.091.148 0 .269-.007.363-.023l.228-.045.272 1.205c-.09.034-.217.068-.38.102-.163.038-.37.057-.62.057-.378 0-.75-.082-1.113-.245a2.217 2.217 0 0 1-.898-.744c-.235-.333-.352-.754-.352-1.261v-8.682Zm9.017 2.091v1.136h-4.523v-1.136h4.523Zm-3.205-2.091h1.341v8.318c0 .379.055.663.165.852a.853.853 0 0 0 .432.375c.178.061.365.091.562.091.148 0 .269-.007.364-.023l.227-.045.273 1.205a2.74 2.74 0 0 1-.381.102 2.792 2.792 0 0 1-.619.057 2.7 2.7 0 0 1-1.114-.245 2.208 2.208 0 0 1-.897-.744c-.235-.333-.353-.754-.353-1.261v-8.682ZM156.118 247v-8.727h1.341V247h-1.341Zm.682-10.182a.951.951 0 0 1-.676-.267.857.857 0 0 1-.279-.642c0-.25.093-.464.279-.642a.951.951 0 0 1 .676-.267c.261 0 .485.089.67.267.19.178.284.392.284.642s-.094.464-.284.642a.932.932 0 0 1-.67.267Zm4.456 4.932V247h-1.341v-8.727h1.295v1.363h.114c.204-.443.515-.799.932-1.068.416-.273.954-.409 1.613-.409.591 0 1.108.121 1.551.364.444.238.788.602 1.035 1.091.246.484.369 1.098.369 1.841V247h-1.341v-5.455c0-.685-.178-1.219-.534-1.602-.356-.386-.845-.579-1.466-.579-.428 0-.811.092-1.148.278a1.998 1.998 0 0 0-.79.813c-.193.356-.289.787-.289 1.295Zm11.541 8.705c-.648 0-1.205-.084-1.671-.25a3.545 3.545 0 0 1-1.164-.648 3.54 3.54 0 0 1-.733-.852l1.068-.75c.121.159.274.34.46.545.186.208.439.388.761.54.326.155.752.233 1.279.233.704 0 1.286-.171 1.744-.512.459-.341.688-.875.688-1.602v-1.773h-.114a7.324 7.324 0 0 1-.42.591c-.178.231-.436.438-.773.62-.333.178-.784.267-1.352.267-.705 0-1.338-.167-1.898-.5-.557-.334-.998-.819-1.324-1.455-.322-.636-.483-1.409-.483-2.318 0-.894.157-1.672.472-2.335.314-.667.752-1.182 1.312-1.546.561-.367 1.208-.551 1.943-.551.569 0 1.019.095 1.353.284.337.186.594.398.772.637.182.234.322.428.421.579h.136v-1.386h1.296v8.977c0 .75-.171 1.36-.512 1.83-.337.473-.791.82-1.363 1.039a5.139 5.139 0 0 1-1.898.336Zm-.046-4.796c.538 0 .993-.123 1.364-.369.371-.246.653-.601.847-1.063.193-.462.289-1.015.289-1.659 0-.629-.094-1.184-.284-1.665-.189-.481-.469-.858-.841-1.13-.371-.273-.829-.409-1.375-.409-.568 0-1.041.144-1.42.431a2.637 2.637 0 0 0-.847 1.16 4.487 4.487 0 0 0-.278 1.613c0 .606.095 1.142.284 1.608.193.462.477.826.852 1.091.379.261.849.392 1.409.392Zm12.455-5.432-1.205.341a2.197 2.197 0 0 0-.335-.585 1.63 1.63 0 0 0-.591-.477c-.25-.125-.57-.188-.96-.188-.534 0-.979.123-1.335.37-.352.242-.529.551-.529.926 0 .333.122.596.364.789.242.194.621.355 1.136.483l1.296.319c.78.189 1.362.479 1.744.869.383.386.574.884.574 1.494 0 .5-.144.947-.432 1.341-.284.394-.682.705-1.193.932-.511.227-1.106.341-1.784.341-.89 0-1.627-.193-2.21-.58-.584-.386-.953-.95-1.108-1.693l1.273-.318c.121.47.35.822.687 1.057.341.235.786.352 1.335.352.625 0 1.121-.133 1.489-.398.371-.269.557-.591.557-.966 0-.303-.106-.556-.318-.761-.213-.208-.538-.364-.978-.466l-1.454-.341c-.8-.189-1.387-.483-1.762-.88-.371-.402-.556-.904-.556-1.506 0-.493.138-.928.414-1.307a2.827 2.827 0 0 1 1.142-.892c.485-.216 1.034-.324 1.648-.324.864 0 1.542.189 2.034.568.496.379.849.879 1.057 1.5Z" fill="#868593"/><mask id="gltfzlkrnf" style="mask-type:alpha" maskUnits="userSpaceOnUse" x="34" y="280" width="20" height="18"><path fill-rule="evenodd" clip-rule="evenodd" d="M41.083 282.25a2.584 2.584 0 1 0 0 5.167 2.584 2.584 0 0 0 0-5.167ZM37 284.833a4.083 4.083 0 1 1 8.166 0 4.083 4.083 0 0 1-8.166 0Zm13.666.084a.75.75 0 0 1 .75.75v1.75h1.75a.75.75 0 1 1 0 1.5h-1.75v1.75a.75.75 0 0 1-1.5 0v-1.75h-1.75a.75.75 0 0 1 0-1.5h1.75v-1.75a.75.75 0 0 1 .75-.75Zm-15.387 7.029a4.082 4.082 0 0 1 2.887-1.196H44a4.082 4.082 0 0 1 4.083 4.083v1.667a.75.75 0 0 1-1.5 0v-1.667A2.581 2.581 0 0 0 44 292.25h-5.834a2.582 2.582 0 0 0-2.583 2.583v1.667a.75.75 0 0 1-1.5 0v-1.667c0-1.083.43-2.121 1.196-2.887Z" fill="#fff"/></mask><g mask="url(#gltfzlkrnf)"><path fill="#868593" d="M34 279h20v20H34z"/></g><path d="M68.818 283.364V295H67.41v-11.636h1.41Zm3.985 6.386V295h-1.341v-8.727h1.295v1.363h.114c.204-.443.515-.799.932-1.068.416-.273.954-.409 1.613-.409.591 0 1.108.121 1.551.364.444.238.788.602 1.034 1.091.247.484.37 1.098.37 1.841V295H77.03v-5.455c0-.685-.178-1.219-.534-1.602-.356-.386-.845-.579-1.466-.579-.428 0-.81.092-1.148.278a1.99 1.99 0 0 0-.79.813c-.193.356-.29.787-.29 1.295Zm14.842-3.477L84.418 295h-1.364l-3.227-8.727h1.454l2.41 6.954h.09l2.41-6.954h1.454Zm1.77 8.727v-8.727h1.34V295h-1.34Zm.682-10.182a.953.953 0 0 1-.676-.267.858.858 0 0 1-.279-.642c0-.25.093-.464.279-.642a.953.953 0 0 1 .676-.267c.261 0 .484.089.67.267a.85.85 0 0 1 .284.642.85.85 0 0 1-.284.642.934.934 0 0 1-.67.267Zm6.91 1.455v1.136h-4.523v-1.136h4.523Zm-3.204-2.091h1.34v8.318c0 .379.055.663.165.852a.85.85 0 0 0 .432.375c.178.061.366.091.563.091.147 0 .269-.007.363-.023l.228-.045.272 1.205a2.72 2.72 0 0 1-.38.102c-.163.038-.37.057-.62.057-.379 0-.75-.082-1.113-.245a2.215 2.215 0 0 1-.898-.744c-.235-.333-.352-.754-.352-1.261v-8.682Zm8.786 11c-.84 0-1.566-.186-2.176-.557a3.742 3.742 0 0 1-1.403-1.568c-.326-.674-.489-1.459-.489-2.352 0-.894.163-1.682.489-2.364.33-.686.788-1.22 1.375-1.602.591-.387 1.28-.58 2.068-.58.455 0 .904.076 1.347.227.443.152.846.398 1.21.739.364.337.653.784.869 1.341.216.557.324 1.242.324 2.057v.568h-6.727v-1.159h5.363c0-.493-.098-.932-.295-1.318a2.219 2.219 0 0 0-.83-.915c-.356-.224-.776-.335-1.261-.335-.534 0-.996.132-1.386.397a2.617 2.617 0 0 0-.892 1.023 3.002 3.002 0 0 0-.313 1.352v.773c0 .659.114 1.218.341 1.676.231.455.551.801.96 1.04.409.235.885.352 1.426.352.353 0 .671-.049.955-.147.288-.103.536-.254.744-.455.209-.205.37-.458.483-.761l1.296.363c-.137.44-.366.826-.688 1.159-.322.33-.719.587-1.193.773a4.421 4.421 0 0 1-1.597.273Zm10.336-11.818h1.682l3.954 9.659h.136l3.955-9.659h1.682V295h-1.318v-8.841h-.114L119.266 295h-1.273l-3.636-8.841h-.114V295h-1.318v-11.636Zm17.711 11.818c-.841 0-1.566-.186-2.176-.557a3.736 3.736 0 0 1-1.403-1.568c-.326-.674-.489-1.459-.489-2.352 0-.894.163-1.682.489-2.364.329-.686.788-1.22 1.375-1.602.591-.387 1.28-.58 2.068-.58.455 0 .903.076 1.347.227.443.152.846.398 1.21.739.363.337.653.784.869 1.341.216.557.324 1.242.324 2.057v.568h-6.727v-1.159h5.363c0-.493-.098-.932-.295-1.318a2.219 2.219 0 0 0-.83-.915c-.356-.224-.776-.335-1.261-.335-.534 0-.996.132-1.386.397a2.617 2.617 0 0 0-.892 1.023 2.997 2.997 0 0 0-.313 1.352v.773c0 .659.114 1.218.341 1.676.231.455.551.801.96 1.04.409.235.885.352 1.426.352.353 0 .671-.049.955-.147.288-.103.536-.254.744-.455.209-.205.37-.458.483-.761l1.296.363c-.137.44-.366.826-.688 1.159-.322.33-.72.587-1.193.773a4.425 4.425 0 0 1-1.597.273Zm5.654-.182v-8.727h1.295v1.363h.114c.182-.466.475-.827.881-1.085.405-.261.892-.392 1.46-.392.576 0 1.055.131 1.437.392.387.258.688.619.904 1.085h.091c.223-.45.558-.808 1.005-1.074.447-.268.983-.403 1.608-.403.781 0 1.419.244 1.915.733.496.485.744 1.241.744 2.267V295h-1.341v-5.841c0-.644-.176-1.104-.528-1.381a1.957 1.957 0 0 0-1.244-.414c-.614 0-1.089.185-1.426.556-.338.368-.506.834-.506 1.398V295h-1.364v-5.977c0-.496-.161-.896-.483-1.199-.322-.307-.736-.46-1.244-.46-.349 0-.674.092-.977.278-.3.186-.542.443-.728.773a2.288 2.288 0 0 0-.272 1.13V295h-1.341Zm14.088 0v-11.636h1.341v4.295h.113c.099-.151.235-.345.409-.579.179-.239.432-.451.762-.637.333-.189.784-.284 1.352-.284.735 0 1.383.184 1.943.551.561.368.998.888 1.313 1.563.314.674.471 1.469.471 2.386 0 .924-.157 1.725-.471 2.403-.315.675-.75 1.197-1.307 1.569-.557.367-1.199.551-1.926.551-.561 0-1.01-.093-1.347-.279-.337-.189-.596-.403-.778-.642a8.677 8.677 0 0 1-.421-.602h-.159V295h-1.295Zm1.318-4.364c0 .659.097 1.241.29 1.745.193.5.475.892.846 1.176.372.28.826.42 1.364.42.561 0 1.028-.147 1.403-.443.379-.299.663-.701.853-1.204a4.734 4.734 0 0 0 .289-1.694c0-.613-.094-1.166-.284-1.659-.185-.496-.467-.888-.846-1.176-.375-.292-.847-.437-1.415-.437-.545 0-1.004.138-1.375.414-.371.273-.651.656-.841 1.148-.189.489-.284 1.059-.284 1.71Zm12.097 4.546c-.841 0-1.567-.186-2.177-.557a3.742 3.742 0 0 1-1.403-1.568c-.326-.674-.489-1.459-.489-2.352 0-.894.163-1.682.489-2.364.33-.686.788-1.22 1.375-1.602.591-.387 1.28-.58 2.068-.58.455 0 .904.076 1.347.227.443.152.846.398 1.21.739.364.337.653.784.869 1.341.216.557.324 1.242.324 2.057v.568h-6.727v-1.159h5.364c0-.493-.099-.932-.296-1.318a2.223 2.223 0 0 0-.829-.915c-.356-.224-.777-.335-1.262-.335-.534 0-.996.132-1.386.397a2.625 2.625 0 0 0-.892 1.023 3.01 3.01 0 0 0-.313 1.352v.773c0 .659.114 1.218.341 1.676.231.455.551.801.96 1.04.41.235.885.352 1.427.352.352 0 .67-.049.954-.147.288-.103.536-.254.744-.455.209-.205.37-.458.483-.761l1.296.363c-.136.44-.366.826-.688 1.159-.322.33-.719.587-1.193.773a4.416 4.416 0 0 1-1.596.273Zm5.653-.182v-8.727h1.295v1.318h.091c.159-.432.447-.782.864-1.051a2.542 2.542 0 0 1 1.409-.404c.099 0 .222.002.369.006.148.004.26.01.336.017v1.364a3.462 3.462 0 0 0-.313-.051 3.017 3.017 0 0 0-.506-.04c-.424 0-.803.089-1.136.267a2.019 2.019 0 0 0-.784.727 1.963 1.963 0 0 0-.284 1.051V295h-1.341Z" fill="#868593"/><path d="M44 345.333a8.333 8.333 0 1 0 0-16.666 8.333 8.333 0 0 0 0 16.666Zm0-5V337m0-3.333h.008" stroke="#868593" stroke-width="1.5" stroke-linecap="round" stroke-linejoin="round"/><path d="M71 343h-3.59v-11.636h3.75c1.128 0 2.094.233 2.897.698.803.463 1.418 1.127 1.846 1.995.428.863.642 1.898.642 3.102 0 1.212-.216 2.256-.647 3.131a4.617 4.617 0 0 1-1.887 2.011c-.825.466-1.83.699-3.011.699Zm-2.182-1.25h2.091c.962 0 1.76-.186 2.392-.557a3.428 3.428 0 0 0 1.415-1.585c.31-.686.466-1.502.466-2.449 0-.939-.154-1.748-.46-2.426a3.396 3.396 0 0 0-1.375-1.568c-.61-.368-1.37-.551-2.279-.551h-2.25v9.136Zm13.568 1.432c-.84 0-1.566-.186-2.176-.557a3.74 3.74 0 0 1-1.403-1.568c-.326-.674-.489-1.459-.489-2.352 0-.894.163-1.682.489-2.364.33-.686.788-1.22 1.375-1.602.59-.387 1.28-.58 2.068-.58.454 0 .903.076 1.347.227.443.152.846.398 1.21.739.364.337.653.784.87 1.341.215.557.323 1.242.323 2.057v.568h-6.727v-1.159h5.363c0-.493-.098-.932-.295-1.318a2.22 2.22 0 0 0-.83-.915c-.356-.224-.776-.335-1.261-.335-.534 0-.996.132-1.386.397a2.625 2.625 0 0 0-.892 1.023 3.006 3.006 0 0 0-.313 1.352v.773c0 .659.114 1.218.341 1.676.231.455.551.801.96 1.04.41.235.885.352 1.426.352.353 0 .67-.049.955-.147a2.05 2.05 0 0 0 .744-.455c.209-.205.37-.458.483-.761l1.296.363c-.137.44-.366.826-.688 1.159a3.35 3.35 0 0 1-1.193.773 4.421 4.421 0 0 1-1.597.273Zm5.836-.182v-11.636h1.34v4.295h.114c.099-.151.235-.345.41-.579.177-.239.431-.451.76-.637.334-.189.785-.284 1.353-.284.735 0 1.382.184 1.943.551.56.368.998.888 1.313 1.563.314.674.471 1.469.471 2.386 0 .924-.157 1.725-.472 2.403-.314.675-.75 1.197-1.306 1.569-.557.367-1.2.551-1.926.551-.561 0-1.01-.093-1.347-.279-.337-.189-.597-.403-.778-.642a8.54 8.54 0 0 1-.42-.602h-.16V343h-1.295Zm1.318-4.364c0 .659.096 1.241.29 1.745.193.5.475.892.846 1.176.371.28.826.42 1.364.42.56 0 1.028-.147 1.403-.443.379-.299.663-.701.853-1.204.193-.508.29-1.072.29-1.694 0-.613-.096-1.166-.285-1.659-.186-.496-.468-.888-.847-1.176-.374-.292-.846-.437-1.414-.437-.546 0-1.004.138-1.375.414-.371.273-.652.656-.841 1.148-.19.489-.284 1.059-.284 1.71Zm13.937.796v-5.159h1.341V343h-1.341v-1.477h-.091c-.204.443-.522.82-.954 1.13-.432.307-.977.461-1.637.461a2.92 2.92 0 0 1-1.454-.358c-.424-.243-.758-.606-1-1.091-.242-.489-.364-1.104-.364-1.847v-5.545h1.341v5.454c0 .637.178 1.144.534 1.523.36.379.818.568 1.375.568.334 0 .673-.085 1.017-.256.349-.17.64-.431.875-.784.239-.352.358-.801.358-1.346Zm7.32 7.023c-.648 0-1.205-.084-1.671-.25a3.545 3.545 0 0 1-1.164-.648 3.54 3.54 0 0 1-.733-.852l1.068-.75c.121.159.274.34.46.545.186.208.439.388.761.54.326.155.752.233 1.279.233.704 0 1.286-.171 1.744-.512.459-.341.688-.875.688-1.602v-1.773h-.114a7.324 7.324 0 0 1-.42.591c-.178.231-.436.438-.773.62-.333.178-.784.267-1.352.267-.705 0-1.338-.167-1.898-.5-.557-.334-.998-.819-1.324-1.455-.322-.636-.483-1.409-.483-2.318 0-.894.157-1.672.472-2.335.314-.667.752-1.182 1.312-1.546.561-.367 1.208-.551 1.943-.551.569 0 1.019.095 1.353.284.337.186.594.398.772.637.182.234.322.428.421.579h.136v-1.386h1.296v8.977c0 .75-.171 1.36-.512 1.83-.337.473-.791.82-1.363 1.039a5.139 5.139 0 0 1-1.898.336Zm-.046-4.796c.538 0 .993-.123 1.364-.369.371-.246.653-.601.847-1.063.193-.462.289-1.015.289-1.659 0-.629-.094-1.184-.284-1.665-.189-.481-.469-.858-.841-1.13-.371-.273-.829-.409-1.375-.409-.568 0-1.041.144-1.42.431a2.637 2.637 0 0 0-.847 1.16 4.487 4.487 0 0 0-.278 1.613c0 .606.095 1.142.284 1.608.193.462.477.826.852 1.091.379.261.849.392 1.409.392Zm12.364-10.295V343h-1.409v-11.636h1.409Zm3.984 6.386V343h-1.34v-8.727h1.295v1.363h.114c.204-.443.515-.799.931-1.068.417-.273.955-.409 1.614-.409.591 0 1.108.121 1.551.364.443.238.788.602 1.034 1.091.247.484.37 1.098.37 1.841V343h-1.341v-5.455c0-.685-.178-1.219-.534-1.602-.356-.386-.845-.579-1.466-.579-.428 0-.811.092-1.148.278a1.992 1.992 0 0 0-.79.813c-.193.356-.29.787-.29 1.295Zm11.905-3.477v1.136H134.3v-1.136h4.704ZM135.709 343v-9.932c0-.5.117-.916.352-1.25a2.19 2.19 0 0 1 .915-.75c.375-.166.771-.25 1.187-.25.33 0 .599.027.807.08.209.053.364.102.466.147l-.386 1.16a5.962 5.962 0 0 0-.284-.086 1.731 1.731 0 0 0-.466-.051c-.443 0-.764.112-.961.335-.193.224-.289.552-.289.983V343h-1.341Zm8.361.182c-.788 0-1.48-.188-2.074-.563-.591-.375-1.053-.899-1.387-1.574-.329-.674-.494-1.462-.494-2.363 0-.909.165-1.703.494-2.381.334-.678.796-1.204 1.387-1.579.594-.375 1.286-.563 2.074-.563.787 0 1.477.188 2.068.563.594.375 1.057.901 1.386 1.579.333.678.5 1.472.5 2.381 0 .901-.167 1.689-.5 2.363a3.765 3.765 0 0 1-1.386 1.574c-.591.375-1.281.563-2.068.563Zm0-1.205c.598 0 1.091-.153 1.477-.46a2.72 2.72 0 0 0 .858-1.21c.185-.5.278-1.042.278-1.625 0-.584-.093-1.127-.278-1.631a2.748 2.748 0 0 0-.858-1.221c-.386-.311-.879-.466-1.477-.466-.599 0-1.091.155-1.478.466-.386.31-.672.717-.858 1.221a4.695 4.695 0 0 0-.278 1.631c0 .583.093 1.125.278 1.625.186.5.472.903.858 1.21.387.307.879.46 1.478.46Z" fill="#868593"/></g><defs><linearGradient id="y3bixlzq6a" x1="260" y1="290" x2="260" y2="462" gradientUnits="userSpaceOnUse"><stop stop-color="#C4C4C4"/><stop offset="1" stop-color="#C4C4C4" stop-opacity="0"/></linearGradient></defs></svg>