<svg width="245" height="245" viewBox="0 0 245 245" fill="none" xmlns="http://www.w3.org/2000/svg">
<path d="M60.7665 32.0611C40.946 45.5905 26.1188 65.256 18.5654 88.0343C11.0121 110.813 11.1508 135.441 18.9603 158.134C26.7698 180.825 41.8175 200.323 61.7892 213.628C81.7609 226.934 105.551 233.31 129.5 231.776C153.448 230.242 176.23 220.883 194.341 205.138C212.452 189.394 224.889 168.135 229.74 144.633C234.591 121.13 231.586 96.6851 221.189 75.056C210.79 53.4281 193.576 35.8137 172.191 24.9237L152.314 63.954C165.145 70.488 175.474 81.057 181.713 94.0333C187.951 107.011 189.754 121.678 186.844 135.78C183.934 149.881 176.472 162.636 165.605 172.083C154.738 181.53 141.069 187.145 126.7 188.065C112.33 188.986 98.0566 185.16 86.0735 177.177C74.0905 169.194 65.0619 157.495 60.3762 143.88C55.6905 130.265 55.6073 115.488 60.1393 101.821C64.6713 88.1533 73.5676 76.3542 85.4599 68.2364L60.7665 32.0611Z" fill="#C7C3C3"/>
<path d="M222.591 78.0929C215.508 62.1272 204.707 48.0868 191.092 37.1455C177.477 26.2042 161.442 18.6783 144.326 15.1973C127.209 11.7154 109.508 12.3795 92.7007 17.1332C75.893 21.886 60.4665 30.5919 47.7087 42.5216C34.9511 54.4523 25.2325 69.2611 19.3644 85.7128C13.4964 102.165 11.6491 119.781 13.9768 137.092C16.3045 154.403 22.7396 170.906 32.745 185.224C42.7503 199.541 56.0355 211.257 71.4914 219.394L91.8949 180.636C82.6213 175.754 74.6502 168.725 68.647 160.134C62.6438 151.544 58.7827 141.642 57.3861 131.256C55.9894 120.868 57.0978 110.299 60.6187 100.428C64.1396 90.5572 69.9707 81.6714 77.6253 74.5131C85.2799 67.3549 94.5358 62.132 104.62 59.2797C114.705 56.4275 125.325 56.0292 135.596 58.1182C145.865 60.2072 155.487 64.7223 163.656 71.2876C171.825 77.852 178.304 86.2761 182.555 95.8556L222.591 78.0929Z" fill="white"/>
</svg>
